<svg xmlns="http://www.w3.org/2000/svg" style="display: none;">

    <symbol id="logo-mobile" viewBox="0 0 74.43 22.86"> <path d="M0 1.45C0 .75.58.16 1.26.16h7.18c5.08 0 8.43 2.7 8.43 7.15v.06c0 4.86-4.06 7.38-8.85 7.38H2.54v6.82c0 .7-.58 1.29-1.28 1.29-.68 0-1.26-.58-1.26-1.29V1.45zm8.11 10.98c3.74 0 6.19-2 6.19-4.96v-.06c0-3.23-2.42-4.9-6.06-4.9h-5.7v9.92h5.57zM21.73 1.29c0-.71.58-1.29 1.25-1.29.71 0 1.3.58 1.3 1.29v20.28c0 .7-.59 1.29-1.3 1.29-.67 0-1.25-.58-1.25-1.29V1.3zM30.87 1.32c0-.68.58-1.26 1.26-1.26h.35c.58 0 .93.3 1.29.74l13.68 17.45v-17C47.45.59 48 0 48.71 0c.67 0 1.22.58 1.22 1.26V21.6c0 .68-.48 1.2-1.16 1.2h-.13c-.54 0-.93-.33-1.32-.78L33.35 4.15V21.6c0 .68-.55 1.26-1.26 1.26-.67 0-1.22-.58-1.22-1.26V1.32zM56.3 1.29c0-.71.58-1.29 1.26-1.29.7 0 1.28.58 1.28 1.29v12.33L71.7.45c.29-.26.58-.45 1-.45.67 0 1.22.61 1.22 1.26 0 .35-.16.64-.42.9l-7.98 7.92 8.56 10.56c.23.29.36.54.36.93 0 .68-.58 1.29-1.29 1.29-.48 0-.8-.26-1.03-.58l-8.4-10.46-4.87 4.86v4.9c0 .7-.57 1.28-1.28 1.28-.68 0-1.26-.58-1.26-1.29V1.3z" />
    </symbol>

    <symbol id="logo-tablet" viewBox="0 0 146.3 40.38"> <path d="M71.87 18.66c0-.7.58-1.29 1.26-1.29h7.18c5.09 0 8.44 2.7 8.44 7.15v.06c0 4.86-4.06 7.38-8.86 7.38h-5.47v6.82c0 .7-.58 1.29-1.3 1.29-.67 0-1.25-.58-1.25-1.29V18.66zM80 29.64c3.73 0 6.18-2 6.18-4.96v-.06c0-3.22-2.41-4.9-6.05-4.9h-5.7v9.92h5.57zM93.6 18.5c0-.7.58-1.29 1.26-1.29.7 0 1.29.58 1.29 1.29v20.28c0 .71-.58 1.29-1.3 1.29-.67 0-1.25-.58-1.25-1.29V18.5zM102.74 18.53c0-.67.58-1.25 1.26-1.25h.35c.58 0 .94.29 1.3.74l13.68 17.45v-17c0-.68.54-1.26 1.25-1.26.68 0 1.23.58 1.23 1.26v20.35c0 .67-.49 1.19-1.16 1.19h-.13c-.55 0-.94-.32-1.32-.78l-13.98-17.86v17.45c0 .67-.54 1.25-1.25 1.25-.68 0-1.22-.58-1.22-1.25V18.53zM128.17 18.5c0-.7.58-1.29 1.26-1.29.7 0 1.29.58 1.29 1.29v12.33l12.84-13.17c.3-.25.58-.45 1-.45.68 0 1.23.61 1.23 1.26 0 .35-.16.64-.42.9l-7.99 7.92 8.57 10.56c.22.3.35.55.35.94 0 .67-.58 1.28-1.28 1.28-.49 0-.81-.25-1.03-.58l-8.4-10.46-4.87 4.86v4.9c0 .7-.58 1.28-1.29 1.28-.67 0-1.25-.58-1.25-1.29V18.5zM60.46 28.02L55.3 6.65C54.93 4.3 52.69 0 46.69 0a1.5 1.5 0 1 0 0 3c4.85 0 5.57 3.73 5.64 4.14l4.76 19.7h-2.07c-.74-5.92-5.8-10.53-11.93-10.53s-11.18 4.6-11.92 10.53h-1.82c-.74-5.92-5.8-10.53-11.93-10.53S6.23 20.91 5.49 26.84H3.42l4.77-19.7C8.25 6.73 8.97 3 13.83 3a1.5 1.5 0 1 0 0-3c-6.01 0-8.24 4.3-8.6 6.65L.05 28.02c-.26 1.1.53 1.82 1.43 1.82H5.5c.74 5.93 5.8 10.54 11.92 10.54s11.19-4.6 11.93-10.53h1.81c.75 5.92 5.8 10.53 11.93 10.53s11.19-4.6 11.93-10.53h4.02c.9 0 1.69-.73 1.42-1.83zm-34.15 1.82a9.03 9.03 0 1 1-17.8-2.98 9.03 9.03 0 0 1 17.8 2.98zm25.68 0a9.03 9.03 0 1 1-17.8-2.99 9.03 9.03 0 0 1 17.8 3z" />
    </symbol>

    <symbol id="logo-desktop"  viewBox="0 0 146.3 40.375" >
      <g fill="#FFF">
        <path d="M71.874 18.661c0-.708.58-1.288 1.256-1.288h7.18c5.087 0 8.436 2.704 8.436 7.146v.064c0 4.861-4.057 7.373-8.854 7.373h-5.475v6.825c0 .708-.58 1.288-1.288 1.288-.676 0-1.256-.58-1.256-1.288v-20.12zm8.114 10.98c3.734 0 6.182-1.996 6.182-4.959v-.063c0-3.22-2.414-4.894-6.053-4.894h-5.699v9.917h5.57v-.001zM93.603 18.5c0-.708.579-1.288 1.255-1.288.709 0 1.288.58 1.288 1.288v20.283c0 .708-.579 1.287-1.288 1.287-.676 0-1.255-.579-1.255-1.287V18.5zM102.744 18.532c0-.676.58-1.256 1.256-1.256h.354c.58 0 .935.29 1.288.74l13.684 17.45V18.468c0-.676.547-1.256 1.256-1.256.676 0 1.224.58 1.224 1.256v20.349c0 .676-.481 1.19-1.158 1.19h-.129c-.548 0-.935-.321-1.319-.772l-13.975-17.868v17.45c0 .676-.547 1.256-1.256 1.256-.676 0-1.223-.58-1.223-1.256V18.532h-.002zM128.173 18.5c0-.708.58-1.288 1.257-1.288.708 0 1.286.58 1.286 1.288v12.331l12.848-13.168c.29-.257.579-.451.998-.451.676 0 1.225.612 1.225 1.256 0 .354-.162.644-.42.901l-7.984 7.92 8.564 10.561c.225.291.354.547.354.935 0 .676-.578 1.288-1.286 1.288-.483 0-.806-.258-1.03-.58l-8.402-10.463-4.863 4.861v4.894c0 .708-.578 1.288-1.286 1.288-.677 0-1.257-.58-1.257-1.288V18.5h-.004z"/>
      </g>
      <path fill="#D22856" d="M98.498 9.875c-2.002 0-3.623-1.623-3.623-3.624 0 2.001-1.623 3.624-3.625 3.624 2.002 0 3.625 1.623 3.625 3.624 0-2.001 1.621-3.624 3.623-3.624z"/>
      <g fill="#FFF">
        <path d="M43.094 19.313c.246 0 .489.014.73.033-.437-.728-1.227-1.221-2.136-1.221-.877 0-1.614-.568-1.884-1.354-.727.208-1.425.482-2.089.816.062.017.122.038.188.038 1.104 0 2 .896 2 2 0 .096-.015.188-.028.281 1-.382 2.084-.593 3.219-.593z"/>
        <path d="M60.462 28.016c-.002-.009-5.175-21.365-5.175-21.365C54.926 4.303 52.694 0 46.688 0c-.829 0-1.5.671-1.5 1.5s.671 1.5 1.5 1.5c4.856 0 5.575 3.729 5.639 4.143l4.767 19.701h-2.073c-.445-3.557-2.453-6.628-5.305-8.522-.897.379-1.529 1.269-1.529 2.303 0 .088-.015.171-.026.256 1.991 1.358 3.415 3.489 3.829 5.964.082.489.135.988.135 1.5s-.053 1.012-.135 1.5c-.716 4.272-4.421 7.531-8.896 7.531-4.475 0-8.181-3.259-8.896-7.531-.082-.488-.135-.988-.135-1.5s.053-1.011.135-1.5c.147-.878.427-1.711.808-2.483-1.034-.078-1.852-.932-1.852-1.985 0-.189-.077-.357-.192-.489-.938 1.469-1.569 3.15-1.795 4.958h-1.82c-.741-5.927-5.802-10.531-11.927-10.531S6.235 20.917 5.493 26.844H3.42L8.187 7.143C8.25 6.729 8.97 3 13.826 3c.829 0 1.5-.671 1.5-1.5s-.671-1.5-1.5-1.5C7.82 0 5.588 4.303 5.227 6.651c0 0-5.173 21.356-5.175 21.365-.266 1.109.531 1.826 1.426 1.826.012 0 .023.004.036.004h3.982c.079.628.215 1.237.387 1.831.059-.106.102-.224.102-.354 0-1.104.896-2 2-2 .166 0 .324.025.478.063-.043-.343-.074-.688-.074-1.042 0-.512.053-1.011.135-1.5.715-4.271 4.421-7.531 8.896-7.531s8.18 3.26 8.896 7.531c.082.489.135.988.135 1.5s-.053 1.012-.135 1.5c-.715 4.272-4.421 7.531-8.896 7.531-2.022 0-3.883-.67-5.386-1.794-.35.302-.8.491-1.299.491-.413 0-.749.336-.749.748 0 .29-.065.564-.176.812 2.075 1.708 4.722 2.743 7.614 2.743 6.125 0 11.185-4.604 11.927-10.53h1.814c.742 5.926 5.802 10.53 11.927 10.53s11.186-4.604 11.927-10.53H59c.012 0 .023-.004.036-.004.895.001 1.692-.716 1.426-1.825z"/>
      </g>
      <path fill="#D22856" d="M50.686 16.125c-2.485 0-4.499-2.014-4.499-4.499 0 2.485-2.014 4.499-4.499 4.499 2.485 0 4.499 2.014 4.499 4.499 0-2.485 2.013-4.499 4.499-4.499zM37.904 19.626c-1.519 0-2.749-1.23-2.749-2.749 0 1.519-1.23 2.749-2.749 2.749 1.519 0 2.749 1.229 2.749 2.749 0-1.52 1.231-2.749 2.749-2.749zM10.734 34.072c-1.519 0-2.749-1.23-2.749-2.75 0 1.52-1.23 2.75-2.749 2.75 1.519 0 2.749 1.229 2.749 2.748 0-1.517 1.23-2.748 2.749-2.748z"/>
    </symbol>

    <symbol id="no" viewBox="0 0 26.7 26.7"> <path d="M15.5 13.4L26.3 2.6A1.5 1.5 0 1 0 24.2.4L13.4 11.3 2.6.4A1.5 1.5 0 1 0 .4 2.6l10.9 10.8L.4 24.2a1.5 1.5 0 1 0 2.2 2.1l10.8-10.8 10.8 10.8c.3.3.7.5 1 .5s.8-.2 1.1-.5c.6-.6.6-1.5 0-2.1L15.5 13.4z" />
    </symbol>

    <symbol id="yes" viewBox="-82.4 4.9 21.7 16.1"> <path d="M-61 5.2a1 1 0 0 0-1.4 0l-13.4 13.4-4.9-5a1 1 0 1 0-1.4 1.5l5.6 5.6a1 1 0 0 0 1.5 0l14-14c.4-.5.4-1.1 0-1.5z" />
    </symbol>

    <symbol id="logo-footer-mobile" viewBox="0 0 146.3 40.375">
      <g>
        <path  d="M71.874 18.661c0-.708.58-1.288 1.256-1.288h7.18c5.087 0 8.436 2.704 8.436 7.146v.063c0 4.86-4.057 7.373-8.854 7.373h-5.475v6.825c0 .708-.58 1.287-1.289 1.287-.676 0-1.256-.58-1.256-1.287l.002-20.119zm8.114 10.98c3.734 0 6.182-1.996 6.182-4.959v-.062c0-3.221-2.414-4.894-6.053-4.894h-5.699v9.917h5.57v-.002zM93.603 18.5c0-.708.579-1.288 1.255-1.288.709 0 1.288.58 1.288 1.288v20.283c0 .708-.579 1.287-1.288 1.287-.676 0-1.255-.579-1.255-1.287V18.5zM102.744 18.532c0-.676.58-1.256 1.256-1.256h.354c.58 0 .935.29 1.288.74l13.684 17.45V18.468c0-.676.547-1.256 1.256-1.256.676 0 1.225.58 1.225 1.256v20.349c0 .677-.48 1.19-1.158 1.19h-.129c-.548 0-.936-.321-1.318-.772l-13.976-17.867v17.449c0 .677-.547 1.257-1.257 1.257-.676 0-1.223-.58-1.223-1.257V18.532h-.002zM128.173 18.5c0-.708.58-1.288 1.257-1.288.708 0 1.286.58 1.286 1.288v12.331l12.848-13.16c.29-.257.579-.451.998-.451.676 0 1.225.612 1.225 1.256 0 .354-.162.644-.42.901l-7.984 7.92 8.564 10.561c.225.291.354.547.354.936 0 .676-.577 1.288-1.285 1.288-.482 0-.807-.259-1.03-.58l-8.401-10.464-4.863 4.861v4.895c0 .708-.578 1.288-1.286 1.288-.677 0-1.257-.58-1.257-1.288V18.5h-.006z"/>
      </g>
      <path  fill="#D22856" d="M60.462 28.016c-.002-.009-5.175-21.365-5.175-21.365C54.926 4.303 52.694 0 46.688 0c-.829 0-1.5.671-1.5 1.5s.671 1.5 1.5 1.5c4.856 0 5.575 3.729 5.639 4.143l4.767 19.701h-2.073c-.742-5.927-5.802-10.531-11.927-10.531s-11.186 4.604-11.927 10.531h-1.82c-.741-5.927-5.802-10.531-11.927-10.531S6.235 20.917 5.493 26.844H3.42L8.187 7.143C8.25 6.729 8.97 3 13.826 3c.829 0 1.5-.671 1.5-1.5s-.671-1.5-1.5-1.5C7.82 0 5.588 4.303 5.227 6.651c0 0-5.173 21.356-5.175 21.365-.266 1.109.531 1.826 1.426 1.826.012 0 .023.004.036.004h3.982c.741 5.926 5.802 10.53 11.927 10.53s11.185-4.604 11.927-10.53h1.814c.742 5.926 5.802 10.53 11.927 10.53s11.186-4.604 11.927-10.53H59c.012 0 .023-.004.036-.004.895 0 1.692-.717 1.426-1.826zm-34.147 1.828c-.715 4.272-4.421 7.531-8.896 7.531s-8.18-3.259-8.896-7.531c-.082-.488-.135-.988-.135-1.5s.053-1.011.135-1.5c.715-4.271 4.421-7.531 8.896-7.531s8.18 3.26 8.896 7.531c.082.489.135.988.135 1.5s-.053 1.011-.135 1.5zm25.675 0c-.716 4.272-4.421 7.531-8.896 7.531-4.475 0-8.181-3.259-8.896-7.531-.082-.488-.135-.988-.135-1.5s.053-1.011.135-1.5c.716-4.271 4.421-7.531 8.896-7.531 4.475 0 8.181 3.26 8.896 7.531.082.489.135.988.135 1.5s-.053 1.011-.135 1.5z"/>
    </symbol>

    <symbol id="logo-footer-desktop"  viewBox="0 0 146.3 40.375">
      <g fill="#283645">
        <path d="M71.874 18.661c0-.708.58-1.288 1.256-1.288h7.18c5.087 0 8.436 2.704 8.436 7.146v.063c0 4.86-4.057 7.373-8.854 7.373h-5.475v6.825c0 .708-.58 1.287-1.289 1.287-.676 0-1.256-.58-1.256-1.287l.002-20.119zm8.114 10.98c3.734 0 6.182-1.996 6.182-4.959v-.062c0-3.221-2.414-4.894-6.053-4.894h-5.699v9.917h5.57v-.002zM93.603 18.5c0-.708.579-1.288 1.255-1.288.709 0 1.288.58 1.288 1.288v20.283c0 .708-.579 1.287-1.288 1.287-.676 0-1.255-.579-1.255-1.287V18.5zM102.744 18.532c0-.676.58-1.256 1.256-1.256h.354c.58 0 .935.29 1.288.74l13.684 17.45V18.468c0-.676.547-1.256 1.256-1.256.676 0 1.225.58 1.225 1.256v20.349c0 .677-.48 1.19-1.158 1.19h-.129c-.548 0-.936-.321-1.318-.772l-13.976-17.867v17.449c0 .677-.547 1.257-1.257 1.257-.676 0-1.223-.58-1.223-1.257V18.532h-.002zM128.173 18.5c0-.708.58-1.288 1.257-1.288.708 0 1.286.58 1.286 1.288v12.331l12.848-13.168c.29-.257.579-.451.998-.451.676 0 1.225.612 1.225 1.256 0 .354-.162.644-.42.901l-7.984 7.92 8.564 10.561c.225.291.354.547.354.936 0 .676-.577 1.288-1.285 1.288-.482 0-.807-.259-1.03-.58l-8.401-10.464-4.863 4.861v4.895c0 .708-.578 1.288-1.286 1.288-.677 0-1.257-.58-1.257-1.288V18.5h-.006z"/>
      </g>
      <path fill="#D22856" d="M98.498 9.875c-2.002 0-3.623-1.623-3.623-3.624 0 2.001-1.623 3.624-3.625 3.624 2.002 0 3.625 1.623 3.625 3.624 0-2.001 1.621-3.624 3.623-3.624z"/>
      <g fill="#D22856">
        <path d="M43.094 19.313c.246 0 .489.014.73.033-.437-.728-1.227-1.221-2.136-1.221-.877 0-1.614-.568-1.884-1.354-.727.208-1.425.482-2.089.816.062.017.122.038.188.038 1.104 0 2 .896 2 2 0 .096-.015.188-.028.281 1-.382 2.084-.593 3.219-.593z"/>
        <path d="M60.462 28.016c-.002-.009-5.175-21.365-5.175-21.365C54.926 4.303 52.694 0 46.688 0c-.829 0-1.5.671-1.5 1.5s.671 1.5 1.5 1.5c4.856 0 5.575 3.729 5.639 4.143l4.767 19.701h-2.073c-.445-3.557-2.453-6.628-5.305-8.522-.897.379-1.529 1.269-1.529 2.303 0 .088-.015.171-.026.256 1.991 1.358 3.415 3.489 3.829 5.965.082.488.135.987.135 1.5 0 .512-.053 1.012-.135 1.5-.716 4.271-4.421 7.53-8.896 7.53-4.475 0-8.181-3.259-8.896-7.53-.082-.488-.135-.988-.135-1.5 0-.513.053-1.012.135-1.5.147-.879.427-1.712.808-2.484-1.034-.077-1.852-.932-1.852-1.984 0-.189-.077-.357-.192-.488-.938 1.469-1.569 3.149-1.795 4.957h-1.82c-.741-5.927-5.802-10.531-11.927-10.531S6.235 20.917 5.493 26.844H3.42L8.187 7.143C8.25 6.729 8.97 3 13.826 3c.829 0 1.5-.671 1.5-1.5s-.671-1.5-1.5-1.5C7.82 0 5.588 4.303 5.227 6.651c0 0-5.173 21.356-5.175 21.365-.266 1.109.531 1.826 1.426 1.826.012 0 .023.004.036.004h3.982c.079.629.215 1.237.387 1.831.059-.106.102-.224.102-.354 0-1.104.896-2 2-2 .166 0 .324.024.478.062-.043-.343-.074-.688-.074-1.042 0-.512.053-1.011.135-1.5.715-4.271 4.421-7.531 8.896-7.531s8.18 3.26 8.896 7.531c.082.489.135.988.135 1.5s-.053 1.012-.135 1.5c-.715 4.272-4.421 7.531-8.896 7.531-2.022 0-3.883-.67-5.386-1.794-.35.302-.8.491-1.299.491-.413 0-.749.336-.749.748 0 .289-.065.563-.176.812 2.075 1.708 4.722 2.743 7.614 2.743 6.125 0 11.185-4.604 11.927-10.529h1.814c.742 5.926 5.802 10.529 11.927 10.529s11.186-4.604 11.927-10.529H59c.012 0 .023-.005.036-.005.895.002 1.692-.715 1.426-1.824z"/>
      </g>
      <path fill="#283645" d="M50.686 16.125c-2.485 0-4.499-2.014-4.499-4.499 0 2.485-2.014 4.499-4.499 4.499 2.485 0 4.499 2.014 4.499 4.499 0-2.485 2.013-4.499 4.499-4.499zM37.904 19.626c-1.519 0-2.749-1.23-2.749-2.749 0 1.519-1.23 2.749-2.749 2.749 1.519 0 2.749 1.229 2.749 2.749 0-1.52 1.231-2.749 2.749-2.749zM10.734 34.072c-1.519 0-2.749-1.23-2.749-2.75 0 1.52-1.23 2.75-2.749 2.75 1.519 0 2.749 1.229 2.749 2.748 0-1.517 1.23-2.748 2.749-2.748z"/>
    </symbol>

    <symbol id="twitter"  viewBox="0 0 17.5 14.663">
      <path fill-rule="evenodd" clip-rule="evenodd" d="M11.283.153c1.736-.485 3.074.263 3.685 1.151.694-.226 1.372-.47 2.072-.691-.004.841-.538 1.478-.883 1.727.704.166 1.343-.48 1.343-.48-.175.976-1.035 1.746-1.611 1.977-.239 6.592-3.272 10.956-10.382 10.823h-.46c-.422 0-4.29-.45-5.047-1.843 2.341.192 4.011-.412 4.835-1.15-.989-.293-2.761-.464-3.07-2.881.362.105.583.223 1.228.117C1.757 8.067.385 7.366.461 5.218c.294.32 1.1.523 1.381.461C1.117 5.444-.188 2.398.921.843 2.794 2.654 4.769 4.364 8.29 4.528 8.506 2.288 9.461.787 11.283.153z"/>
    </symbol>


    <symbol id="facebook"  viewBox="0 0 8.673 18.944">
      <path d="M6.275 3.357h2.398V0H5.795C2.656.181 1.54 2.387 1.948 6.115H0v3.517h1.958v9.312h3.837V9.632h2.857V6.115H5.786c-.021-1.045-.036-2.406.489-2.758z"/>
    </symbol>

    <symbol id="youtube"  viewBox="0 0 14.64 13.96">
      <path d="M1.775 13.78C.799 14.257 0 13.758 0 12.671V1.29C0 .202.799-.295 1.775.181l12.133 5.932c.975.478.975 1.258 0 1.736L1.775 13.78z"/>
    </symbol>

      <symbol id="htmlacademy"  viewBox="0 0 26.943 34.09">
      <path d="M13.62.017L13.472 0 0 1.412v24.661l13.472 8.017 13.43-7.99.042-.026V1.412L13.62.017zm11.399 12.11L13.495 5.334l-.001-.104-.087.05-.088-.056v.109L1.925 12.118V3.147l11.547-1.212 11.547 1.212v8.98zm-11.614-5.34L24.923 13.5l-4.479 2.64-7.093-4.221-.013 1.415 5.904 3.513-.86.507-5.031-2.992-.013 1.415 3.827 2.275-.782.523-3.032-1.787-.013 1.413 1.852 1.091-1.8 1.081-11.356-6.751 11.371-6.835zm-11.48 8.34l11.411 6.791.015 1.044-7.941-4.728-.015 1.416 7.979 4.796.017 1.076-7.972-4.741-.013 1.415 8.021 4.821.045.026 8.143-4.872v-1.268l-.011-.148v-3.761l3.415-2.036v10.02L13.472 31.85 1.925 24.979v-9.852z"/>
    </symbol>

    <symbol id="crop" viewBox="0 0 48 48">
      <path fill="none" d="M0 0h48v48H0V0z"/>
      <path d="M34 30h4V14c0-2.21-1.79-4-4-4H18v4h16v16zm-20 4V2h-4v8H2v4h8v20c0 2.21 1.79 4 4 4h20v8h4v-8h8v-4H14z"/>
    </symbol>

    <symbol id="fill" viewBox="0 0 48 48">
      <path fill="none" d="M0 0h48v48H0V0z"/>
      <path d="M33.12 17.88L15.24 0l-2.83 2.83 4.76 4.76L6.88 17.88c-1.17 1.17-1.17 3.07 0 4.24l11 11c.58.59 1.35.88 2.12.88s1.54-.29 2.12-.88l11-11c1.17-1.17 1.17-3.07 0-4.24zM10.41 20L20 10.42 29.59 20H10.41zM38 23s-4 4.33-4 7c0 2.21 1.79 4 4 4s4-1.79 4-4c0-2.67-4-7-4-7zM0 40h48v3H0z"/>
    </symbol>

    <symbol id="contrast" viewBox="-35.422 -7.96 31.92 31.92">
    <path d="M-19.462-3.96c6.595 0 11.96 5.365 11.96 11.96s-5.365 11.96-11.96 11.96-11.96-5.365-11.96-11.96 5.365-11.96 11.96-11.96m0-4c-8.814 0-15.96 7.145-15.96 15.96 0 8.813 7.146 15.96 15.96 15.96S-3.502 16.813-3.502 8c0-8.815-7.146-15.96-15.96-15.96z"/>
    <path d="M-19.462 16.331c4.706 0 8.52-3.813 8.52-8.52 0-4.705-3.813-8.519-8.52-8.519"/>
    </symbol>

    <symbol  id="timer" viewBox="0 0 298 346">
  <g fill="none" fill-rule="evenodd">
    <path fill="#DEDEDE" d="M149 306.3a110.2 110.2 0 1 1 0-220.4 110.2 110.2 0 0 1 0 220.4M264.6 102l5.3-5.4c7.7-7.7 9.1-19 3.1-25s-17.2-4.5-24.9 3.2l-5.4 5.4c-21-17-46.6-28.4-74.7-32v-9.6h7.7c10.9 0 19.8-8.7 19.8-19.3 0-10.7-9-19.4-19.8-19.4h-53.4c-10.9 0-19.8 8.7-19.8 19.4 0 10.6 9 19.3 19.8 19.3h7.7v9.6A149 149 0 1 0 264.6 102"/>
    <path fill="#D22856" d="M144.1 224.7h-37.3v-.9l11-10.3c7.4-6.7 12.5-12 15.4-15.6 2.6-3.2 4.8-6.8 6.4-10.6 1.4-3.5 2.1-7.3 2.1-11a21.8 21.8 0 0 0-13-20.4c-4.4-2-9.2-3-14.1-2.9-3.7 0-7.4.4-11 1.2-3.2.8-6.2 2-9.1 3.4a64.2 64.2 0 0 0-10.5 7.7l9.8 11.6a50 50 0 0 1 9.8-6.5c3-1.5 6.3-2.3 9.7-2.3a11 11 0 0 1 7.6 2.5c1.9 1.7 2.8 4.3 2.8 7.7 0 2.3-.4 4.6-1.3 6.7-1 2.5-2.5 4.9-4.2 7-2 2.5-6 7-12.5 13.6l-21.5 21.7v12.6h60v-15.2zm70.4-16.6h-10.3v-53.9h-16.7L150 209.5v12.6h36.5V240h17.7v-17.8h10.3v-14zm-48.6 0l15.7-23.7c2-3 3.8-6.2 5.2-9.4h.5l-.5 8-.3 10.6V208H166z"/>
    <circle cx="149.5" cy="196.5" r="118" stroke="#D22856" stroke-width="17"/>
  </g>
</symbol>

<symbol id="apple" viewBox="0 0 46.21 56.753">
  <path fill="#FFF" d="M38.593 30.15c.081 8.59 7.535 11.447 7.617 11.483-.062.202-1.19 4.073-3.927 8.072-2.365 3.457-4.82 6.901-8.688 6.973-3.799.07-5.021-2.253-9.365-2.253s-5.702 2.182-9.298 2.32c-3.733.142-6.576-3.739-8.961-7.184-4.875-7.046-8.598-19.91-3.597-28.593 2.484-4.313 6.925-7.043 11.743-7.114 3.666-.069 7.126 2.466 9.366 2.466 2.241 0 6.444-3.049 10.865-2.601 1.85.077 7.044.747 10.38 5.629-.269.171-6.197 3.623-6.135 10.802m-7.14-21.088c1.982-2.4 3.316-5.739 2.952-9.062-2.857.115-6.312 1.904-8.36 4.302-1.837 2.123-3.445 5.521-3.011 8.778 3.184.246 6.436-1.619 8.419-4.018"/>
</symbol>

<symbol id="android"  viewBox="0 0 42.084 47.041">
  <path fill="#A4C639" d="M34.144 14.009H7.945c-.009.11-.018.22-.018.333v18.755c0 1.926 1.457 3.49 3.316 3.627v7.43c0 1.594 1.291 2.885 2.885 2.885 1.593 0 2.885-1.291 2.885-2.885v-7.42h8.058v7.42c0 1.594 1.291 2.885 2.885 2.885 1.595 0 2.886-1.291 2.886-2.885V36.72c1.858-.137 3.315-1.701 3.315-3.627V14.342c0-.113-.004-.223-.013-.333zM2.886 15.679c1.593 0 2.886 1.292 2.886 2.885v12.378c0 1.595-1.292 2.886-2.886 2.886S0 32.537 0 30.942V18.564c0-1.594 1.292-2.885 2.886-2.885zM39.198 15.679c1.595 0 2.886 1.292 2.886 2.885v12.378c0 1.595-1.291 2.886-2.886 2.886-1.594 0-2.885-1.291-2.885-2.886V18.564c0-1.594 1.291-2.885 2.885-2.885zM8.03 11.967h26.026c-.039-2.783-1.234-5.322-3.187-7.275L33.315.457c.082-.146.031-.331-.112-.415-.146-.084-.331-.034-.415.111L30.416 4.26c-2.052-1.853-6.249-3.4-9.374-3.4-3.016 0-7.322 1.547-9.374 3.4L9.296.152c-.083-.145-.269-.194-.415-.111-.145.084-.195.27-.111.415l2.445 4.235c-1.95 1.954-3.147 4.493-3.185 7.276zm17.293-5.163c-.002-.805.664-1.46 1.488-1.462.826-.002 1.494.648 1.498 1.454v.008c.002.805-.664 1.46-1.49 1.462-.823.002-1.493-.649-1.496-1.454v-.008zm-11.143 0c-.001-.805.665-1.46 1.489-1.462.824-.002 1.494.648 1.497 1.454v.008c.002.805-.664 1.46-1.488 1.462-.825.002-1.495-.649-1.498-1.454v-.008z"/>
</symbol>

<symbol  id="windows" viewBox="0 0 43.922 41.992">
  <path fill="#F05423" d="M20.874 19.953H0V0h20.874v19.953z"/>
  <path fill="#84C441" d="M43.922 19.953H23.049V0h20.873v19.953z"/>
  <path fill="#2DABE2" d="M20.873 41.992H0V22.04h20.873v19.952z"/>
  <path fill="#F9BC15" d="M43.922 41.992H23.049V22.04h20.873v19.952z"/>
</symbol>

    </svg>
