<svg xmlns="http://www.w3.org/2000/svg" width="298" height="346">
  <g fill="none" fill-rule="evenodd">
    <path fill="#DEDEDE" d="M149 306.3a110.2 110.2 0 1 1 0-220.4 110.2 110.2 0 0 1 0 220.4M264.6 102l5.3-5.4c7.7-7.7 9.1-19 3.1-25s-17.2-4.5-24.9 3.2l-5.4 5.4c-21-17-46.6-28.4-74.7-32v-9.6h7.7c10.9 0 19.8-8.7 19.8-19.3 0-10.7-9-19.4-19.8-19.4h-53.4c-10.9 0-19.8 8.7-19.8 19.4 0 10.6 9 19.3 19.8 19.3h7.7v9.6a149 149 0 1 0 134.6 53.8"/>
    <path fill="#D22856" d="M144.1 224.7h-37.3v-.9l11-10.3c7.4-6.7 12.5-12 15.4-15.6 2.6-3.2 4.8-6.8 6.4-10.6 1.4-3.5 2.1-7.3 2.1-11a21.8 21.8 0 0 0-13-20.4c-4.4-2-9.2-3-14.1-2.9-3.7 0-7.4.4-11 1.2-3.2.8-6.2 2-9.1 3.4a64.2 64.2 0 0 0-10.5 7.7l9.8 11.6a50 50 0 0 1 9.8-6.5c3-1.5 6.3-2.3 9.7-2.3a11 11 0 0 1 7.6 2.5c1.9 1.7 2.8 4.3 2.8 7.7 0 2.3-.4 4.6-1.3 6.7-1 2.5-2.5 4.9-4.2 7-2 2.5-6 7-12.5 13.6l-21.5 21.7v12.6h60v-15.2zm70.4-16.6h-10.3v-53.9h-16.7L150 209.5v12.6h36.5V240h17.7v-17.8h10.3v-14zm-48.6 0l15.7-23.7c2-3 3.8-6.2 5.2-9.4h.5l-.5 8-.3 10.6V208H166z"/>
    <circle cx="149.5" cy="196.5" r="118" stroke="#D22856" stroke-width="17"/>
  </g>
</svg>
